<!-- Generated by IcoMoon.io -->
<svg version="1.1" xmlns="http://www.w3.org/2000/svg" width="26" height="32" viewBox="0 0 26 32">
<title>advantage2</title>
<path d="M12.97 1.42l-11.456 1.988-0.189 16.379c0.189 0.663 1.704 6.817 11.645 10.793 9.846-3.976 11.361-10.13 11.55-10.793l-0.189-16.379-11.361-1.988zM0.757 2.178l12.024-2.178c0.095 0 0.189 0 0.284 0l12.024 2.178c0.379 0.095 0.568 0.284 0.568 0.663l0.189 17.041v0.095c0 0-1.325 7.479-12.686 12.024-0.095 0-0.284 0-0.473 0-11.361-4.544-12.686-12.024-12.686-12.024v-0.095l0.189-17.041c0-0.284 0.189-0.568 0.568-0.663zM6.817 13.633v3.314l4.071 3.787 8.142-8.142v-3.314l-7.574 7.669c-0.284 0.284-0.757 0.284-0.947 0l-3.692-3.314zM5.491 17.231v-5.207c0-0.189 0-0.284 0.189-0.473 0.189-0.284 0.663-0.284 0.947 0l4.26 3.976 8.331-8.331c0.095-0.189 0.284-0.284 0.473-0.284 0.379 0 0.663 0.284 0.663 0.663v5.302c0 0.095 0 0.284-0.189 0.473l-8.71 8.805c-0.284 0.284-0.757 0.284-0.947 0l-4.828-4.355c-0.095-0.095-0.189-0.284-0.189-0.568z"></path>
</svg>
