<!-- Generated by IcoMoon.io -->
<svg version="1.1" xmlns="http://www.w3.org/2000/svg" width="32" height="32" viewBox="0 0 32 32">
<title>advantage3</title>
<path d="M13.67 18.019v-1.864c0-0.621 0-1.243 0.621-1.553 0.311-0.311 0.621-0.621 1.243-0.621h14.913v-7.456h-1.864v3.107c0 0.621-0.311 1.243-0.621 1.553s-0.621 0.621-1.243 0.621h-24.854c-0.311 0-0.932-0.311-1.243-0.621s-0.621-0.932-0.621-1.553v-7.767c0-0.311 0.311-0.932 0.621-1.243s0.932-0.621 1.243-0.621h24.854c0.621 0 0.932 0.311 1.243 0.621s0.621 0.932 0.621 1.243v3.107h1.553c0.621 0 0.932 0.311 1.243 0.621 0.621 0.311 0.621 0.621 0.621 1.243v6.835c0 0.621 0 0.932-0.621 1.243-0.311 0.621-0.621 0.621-1.243 0.621h-14.602c0 0-0.311 0-0.311 0.311 0 0 0 0 0 0.311v1.864h0.621c0.621 0 0.932 0.311 1.553 0.621 0.311 0.311 0.311 0.932 0.311 1.243v9.942c0 0.621 0 1.243-0.311 1.553-0.621 0.311-0.932 0.621-1.553 0.621h-3.107c-0.621 0-0.932-0.311-1.243-0.621-0.621-0.311-0.621-0.932-0.621-1.553v-9.942c0-0.311 0.311-0.932 0.621-1.243s0.621-0.621 1.243-0.621h0.932zM16.155 30.136c0 0 0 0 0-0.311v-10.252h-3.728c0 0.311 0 0.311 0 0.311v9.942c0 0.311 0 0.311 0 0.311 0 0.311 0.311 0.311 0.311 0.311h3.107c0 0 0.311 0 0.311-0.311zM1.553 9.942c0.311 0.311 0.311 0.311 0.311 0.311h24.854c0 0 0.311 0 0.311-0.311 0 0 0 0 0-0.311v-7.767c0 0 0 0 0-0.311h-25.165c0 0 0 0-0.311 0 0 0.311 0 0.311 0 0.311v7.767c0 0.311 0 0.311 0 0.311z"></path>
</svg>
