<!-- Generated by IcoMoon.io -->
<svg version="1.1" xmlns="http://www.w3.org/2000/svg" width="35" height="32" viewBox="0 0 35 32">
<title>advantage4</title>
<path d="M14.651 28.016c-0.386-0.257-0.514-0.643-0.386-1.028 0.257-0.386 0.643-0.514 1.028-0.386 0.771 0.257 1.414 0.514 2.185 0.514s1.414-0.128 2.185-0.514c0.386-0.128 0.771 0 1.028 0.386 0.128 0.386 0 0.771-0.386 1.028-1.028 0.386-1.928 0.643-2.827 0.514-0.9 0-1.928-0.128-2.827-0.514zM13.751 6.811c0 0.386-0.386 0.771-0.771 0.771s-0.771-0.386-0.771-0.771v-1.542c-1.671 0.771-3.213 1.799-4.498 3.213-1.414 1.542-2.57 3.598-3.084 5.783 0 0.257-0.386 0.514-0.771 0.514h-1.671l-0.643 3.598h31.872l-0.643-3.598h-1.799c-0.257 0-0.643-0.129-0.643-0.514-0.514-2.185-1.671-4.241-3.084-5.783-1.285-1.414-2.827-2.442-4.498-3.213v1.542c0 0.386-0.386 0.771-0.771 0.771s-0.771-0.386-0.771-0.771v-2.827c0-0.643-0.386-1.285-1.028-1.671-0.643-0.514-1.671-0.771-2.699-0.771-1.157 0-2.056 0.257-2.699 0.771h-0.129c-0.514 0.386-0.9 1.028-0.9 1.671 0 0.129 0 0.257 0 0.257v2.57zM12.209 3.598c0.129-1.028 0.771-1.928 1.671-2.57s2.185-1.028 3.598-1.028c1.414 0 2.699 0.386 3.598 1.028s1.542 1.542 1.671 2.57c2.185 0.771 4.112 2.185 5.655 3.855 1.414 1.671 2.57 3.727 3.213 5.912h1.285c0.386 0 0.643 0.129 0.9 0.386 0.257 0.129 0.386 0.386 0.386 0.771l0.771 3.984c0 0.128 0 0.128 0 0.257 0 0.257-0.129 0.514-0.386 0.771-0.129 0.257-0.386 0.386-0.771 0.386h-2.956c-0.386 3.341-1.928 6.169-4.112 8.353-2.442 2.313-5.655 3.727-9.253 3.727s-6.811-1.414-9.253-3.727c-2.313-2.185-3.727-5.012-4.112-8.353h-2.827c0 0-0.129 0-0.257 0-0.257 0-0.514-0.128-0.643-0.386-0.257-0.257-0.386-0.514-0.386-0.771 0-0.128 0-0.128 0-0.257l0.771-3.984c0-0.386 0.128-0.643 0.386-0.771 0.257-0.257 0.514-0.386 0.9-0.386h1.285c0.643-2.313 1.799-4.241 3.213-5.912 1.542-1.671 3.47-3.084 5.655-3.855zM29.301 19.92h-23.647c0.257 2.827 1.671 5.398 3.598 7.325 2.185 2.056 5.012 3.213 8.225 3.213s6.040-1.157 8.225-3.213c1.928-1.928 3.213-4.498 3.598-7.325zM13.108 20.819c0.514 0 1.157 0.257 1.542 0.643s0.643 0.9 0.643 1.542c0 0.514-0.257 1.157-0.643 1.542s-1.028 0.643-1.542 0.643c-0.643 0-1.157-0.257-1.542-0.643s-0.643-1.028-0.643-1.542c0-0.643 0.257-1.157 0.643-1.542s0.9-0.643 1.542-0.643zM13.494 22.49c-0.129-0.128-0.257-0.128-0.386-0.128-0.257 0-0.386 0-0.514 0.128s-0.129 0.257-0.129 0.514c0 0.128 0 0.257 0.129 0.386s0.257 0.257 0.514 0.257c0.129 0 0.257-0.128 0.386-0.257s0.257-0.257 0.257-0.386c0-0.257-0.129-0.386-0.129-0.514h-0.129zM21.847 20.819c0.643 0 1.157 0.257 1.542 0.643s0.643 0.9 0.643 1.542c0 0.514-0.257 1.157-0.643 1.542s-0.9 0.643-1.542 0.643-1.157-0.257-1.542-0.643c-0.386-0.386-0.643-1.028-0.643-1.542 0-0.643 0.257-1.157 0.643-1.542s1.028-0.643 1.542-0.643zM22.361 22.49c-0.128-0.128-0.257-0.128-0.514-0.128-0.128 0-0.386 0-0.386 0.128-0.128 0.128-0.257 0.257-0.257 0.514 0 0.128 0.129 0.257 0.257 0.386 0 0.129 0.257 0.257 0.386 0.257s0.386-0.128 0.514-0.257c0.128-0.128 0.128-0.257 0.128-0.386 0-0.257 0-0.386-0.128-0.514z"></path>
</svg>
