<!-- Generated by IcoMoon.io -->
<svg version="1.1" xmlns="http://www.w3.org/2000/svg" width="34" height="32" viewBox="0 0 34 32">
<title>advantage1</title>
<path d="M6.614 12.81h1.835v-1.831h-1.835v1.831zM16.217 14.837h1.835v-1.835h-1.835v1.835zM16.217 11.696h1.835v-1.835h-1.835v1.835zM16.217 8.555h1.835v-1.831h-1.835v1.831zM16.217 5.414h1.835v-1.831h-1.835v1.831zM11.364 7.38v-5.447c0-0.532 0.217-1.012 0.569-1.364v-0.004c0.352-0.348 0.835-0.565 1.364-0.565h7.674c0.528 0 1.012 0.217 1.364 0.569s0.569 0.835 0.569 1.364v8.326h6.126c0.532 0 1.016 0.217 1.364 0.565l0.049 0.053c0.319 0.344 0.52 0.807 0.52 1.315v18.318h2.351c0.41 0 0.745 0.336 0.745 0.745 0 0.414-0.336 0.745-0.745 0.745h-32.569c-0.41 0-0.745-0.332-0.745-0.745 0-0.41 0.336-0.745 0.745-0.745h2.351v-21.197c0-0.532 0.217-1.016 0.569-1.368 0.348-0.348 0.831-0.565 1.364-0.565h6.335zM12.855 1.933v5.451c0.471 0.037 0.897 0.246 1.212 0.561 0.352 0.352 0.569 0.835 0.569 1.368v21.197h4.787v-18.318c0-0.532 0.217-1.016 0.569-1.364 0.348-0.352 0.831-0.569 1.364-0.569h0.057v-8.326c0-0.123-0.049-0.233-0.127-0.311l-0.004-0.004c-0.078-0.078-0.188-0.127-0.311-0.127h-7.674c-0.123 0-0.229 0.049-0.311 0.127l-0.004 0.004c-0.078 0.078-0.127 0.188-0.127 0.311zM4.587 30.509h1.781v-5.848c0-0.41 0.332-0.745 0.745-0.745h3.505c0.414 0 0.745 0.336 0.745 0.745v5.848h1.781v-21.197c0-0.123-0.053-0.233-0.131-0.311-0.082-0.082-0.192-0.131-0.311-0.131h-7.674c-0.123 0-0.233 0.049-0.311 0.131-0.082 0.078-0.131 0.188-0.131 0.311v21.197zM7.859 30.509h2.015v-5.103h-2.015v5.103zM20.914 30.509h8.559v-18.318c0-0.111-0.041-0.213-0.106-0.291l-0.025-0.020c-0.082-0.082-0.188-0.131-0.311-0.131h-7.674c-0.119 0-0.229 0.049-0.311 0.131-0.082 0.078-0.131 0.188-0.131 0.311v18.318zM25.82 22.962h1.835v-1.835h-1.835v1.835zM22.733 22.962h1.835v-1.835h-1.835v1.835zM25.82 19.927h1.835v-1.835h-1.835v1.835zM22.733 19.927h1.835v-1.835h-1.835v1.835zM25.82 16.889h1.835v-1.831h-1.835v1.831zM22.733 16.889h1.835v-1.831h-1.835v1.831zM6.614 22.229h1.835v-1.831h-1.835v1.831zM6.614 19.088h1.835v-1.831h-1.835v1.831zM6.614 15.947h1.835v-1.831h-1.835v1.831z"></path>
</svg>
