<!-- Generated by IcoMoon.io -->
<svg version="1.1" xmlns="http://www.w3.org/2000/svg" width="35" height="32" viewBox="0 0 35 32">
<title>advantage5</title>
<path d="M14.649 9.73c0.865 0 1.513 0.216 1.946 0.649s0.865 1.081 0.865 1.946c0 0.649-0.432 1.297-0.865 1.73s-1.081 0.865-1.946 0.865c-0.649 0-1.297-0.432-1.73-0.865s-0.865-1.081-0.865-1.73c0-0.865 0.432-1.514 0.865-1.946s1.081-0.649 1.73-0.649zM15.514 11.459c-0.216-0.216-0.432-0.432-0.865-0.432-0.216 0-0.649 0.216-0.865 0.432s-0.216 0.432-0.216 0.865c0 0.216 0 0.649 0.216 0.865s0.649 0.216 0.865 0.216c0.432 0 0.649 0 0.865-0.216s0.432-0.649 0.432-0.865c0-0.432-0.216-0.649-0.432-0.865zM23.73 9.73c0.216-0.216 0.649-0.216 1.081 0 0.216 0.432 0.216 0.865 0 1.081l-11.459 11.459c-0.216 0.216-0.865 0.216-1.081 0s-0.216-0.649 0-1.081l11.459-11.459zM22.216 17.297c0.865 0 1.513 0.216 1.946 0.649s0.865 1.081 0.865 1.946c0 0.649-0.432 1.297-0.865 1.73s-1.081 0.865-1.946 0.865c-0.649 0-1.297-0.432-1.73-0.865s-0.865-1.081-0.865-1.73c0-0.865 0.432-1.514 0.865-1.946s1.081-0.649 1.73-0.649zM23.081 19.027c-0.216-0.216-0.432-0.432-0.865-0.432-0.216 0-0.649 0.216-0.865 0.432s-0.216 0.432-0.216 0.865c0 0.216 0 0.649 0.216 0.865s0.649 0.216 0.865 0.216c0.432 0 0.649 0 0.865-0.216s0.432-0.649 0.432-0.865c0-0.432-0.216-0.649-0.432-0.865zM1.243 19.027c-0.216 0.432-0.649 0.432-1.081 0.216-0.216-0.216-0.216-0.649 0-1.081l2.378-3.027c0.216-0.216 0.649-0.216 0.865 0l3.027 2.378c0.432 0.216 0.432 0.649 0.216 0.865s-0.649 0.432-1.081 0.216l-1.73-1.513c0.432 3.676 1.946 6.919 4.324 9.297 2.595 2.595 6.27 4.324 10.378 4.324s7.784-1.73 10.378-4.324c2.595-2.595 4.324-6.27 4.324-10.378 0-2.595-0.649-4.973-1.73-6.919-1.297-2.162-3.027-4.108-4.973-5.405-1.297-0.649-2.595-1.297-3.892-1.73s-2.595-0.649-4.108-0.649c-2.595 0-4.973 0.865-7.135 1.946-2.162 1.297-4.108 3.027-5.405 5.189-0.216 0.216-0.649 0.432-0.865 0.216-0.432-0.216-0.432-0.649-0.216-1.081 1.297-2.162 3.459-4.108 5.838-5.622 2.162-1.297 4.973-1.946 7.784-1.946 1.514 0 3.027 0.216 4.541 0.649s2.811 1.081 4.108 1.946c2.378 1.513 4.108 3.459 5.405 5.838 1.297 2.162 1.946 4.757 1.946 7.568 0 4.541-1.73 8.432-4.757 11.459-2.811 2.811-6.919 4.541-11.243 4.541-4.541 0-8.432-1.73-11.459-4.541-2.595-2.595-4.324-6.27-4.541-10.162l-1.297 1.73z"></path>
</svg>
